<svg width="16" height="17" viewBox="0 0 16 17" fill="none" xmlns="http://www.w3.org/2000/svg">
<path d="M15.5253 13.7493L2.75067 0.974647C2.288 0.51198 1.59867 0.375313 0.994667 0.625313C0.39 0.875313 0 1.45931 0 2.11398V16.5H14.386C15.04 16.5 15.624 16.1093 15.8747 15.5053C16.1253 14.9013 15.988 14.212 15.5253 13.7493ZM14.6427 14.9953C14.616 15.0593 14.5473 15.1666 14.386 15.1666H1.33333V2.11398C1.33333 1.95265 1.44067 1.88331 1.50467 1.85665C1.56867 1.83198 1.69333 1.80265 1.808 1.91731L3.93533 4.04465L2.688 5.29198L3.63067 6.23465L4.878 4.98731L5.82067 5.92998L4.57267 7.17731L4.60733 7.21198L5.55 8.15465L6.79733 6.90665L7.74 7.84931L6.49267 9.09665L7.43533 10.0393L8.68267 8.79198L9.62533 9.73465L8.37733 10.982L9.32 11.9246L10.568 10.6773L11.5107 11.62L10.2633 12.868L11.206 13.8106L12.4533 12.5626L14.5807 14.69C14.6947 14.8046 14.6673 14.9286 14.6407 14.9933L14.6427 14.9953ZM4 8.89065L7.60933 12.5H4V8.89065Z" fill="white"/>
</svg>
