<svg width="15" height="9" viewBox="0 0 15 9" fill="none" xmlns="http://www.w3.org/2000/svg">
<path d="M6.9556 8.47301L0.747761 2.26506C0.604066 2.12148 0.524903 1.92981 0.524903 1.72544C0.524902 1.52107 0.604065 1.3294 0.747761 1.18582L1.20482 0.728643C1.50265 0.431158 1.9867 0.431158 2.28407 0.728643L7.49703 5.94161L12.7158 0.722857C12.8595 0.579275 13.051 0.499998 13.2553 0.499998C13.4598 0.499998 13.6513 0.579275 13.7951 0.722857L14.2521 1.18003C14.3958 1.32372 14.4749 1.51528 14.4749 1.71965C14.4749 1.92403 14.3958 2.1157 14.2521 2.25928L8.03859 8.47301C7.89444 8.61693 7.70197 8.69598 7.49737 8.69553C7.29198 8.69598 7.09963 8.61693 6.9556 8.47301Z" fill="#D71016"/>
</svg>
