<svg width="25" height="20" viewBox="0 0 25 20" fill="none" xmlns="http://www.w3.org/2000/svg">
<path d="M19.1086 4H13.0743C12.1559 4.00335 11.256 4.25737 10.4729 4.73437C9.68971 5.21136 9.0533 5.89302 8.63305 6.705C8.03002 6.24979 7.29426 6.0023 6.53714 6C5.60358 6 4.70826 6.36875 4.04813 7.02513C3.388 7.6815 3.01714 8.57174 3.01714 9.5C3.02009 10.02 3.14074 10.5327 3.37015 11H2.01143V1C2.01143 0.734784 1.90547 0.48043 1.71686 0.292893C1.52825 0.105357 1.27245 0 1.00571 0C0.738982 0 0.483175 0.105357 0.294567 0.292893C0.105959 0.48043 0 0.734784 0 1L0 19C0 19.2652 0.105959 19.5196 0.294567 19.7071C0.483175 19.8946 0.738982 20 1.00571 20C1.27245 20 1.52825 19.8946 1.71686 19.7071C1.90547 19.5196 2.01143 19.2652 2.01143 19V17H22.1257V19C22.1257 19.2652 22.2317 19.5196 22.4203 19.7071C22.6089 19.8946 22.8647 20 23.1314 20C23.3982 20 23.654 19.8946 23.8426 19.7071C24.0312 19.5196 24.1371 19.2652 24.1371 19V9C24.1355 7.67441 23.6052 6.40356 22.6625 5.46622C21.7199 4.52888 20.4417 4.00159 19.1086 4ZM10.0571 9C10.0571 8.20435 10.375 7.44129 10.9408 6.87868C11.5067 6.31607 12.2741 6 13.0743 6H19.1086C19.9088 6 20.6762 6.31607 21.242 6.87868C21.8078 7.44129 22.1257 8.20435 22.1257 9V11H10.0571V9ZM5.02857 9.5C5.02857 9.20333 5.11705 8.91332 5.28281 8.66665C5.44858 8.41997 5.68418 8.22771 5.95984 8.11418C6.23549 8.00065 6.53882 7.97094 6.83145 8.02882C7.12408 8.0867 7.39289 8.22956 7.60386 8.43934C7.81484 8.64912 7.95852 8.91639 8.01673 9.20737C8.07494 9.49834 8.04506 9.79994 7.93088 10.074C7.8167 10.3481 7.62334 10.5824 7.37526 10.7472C7.12718 10.912 6.83551 11 6.53714 11C6.13704 11 5.75333 10.842 5.47042 10.5607C5.18751 10.2794 5.02857 9.89783 5.02857 9.5ZM2.01143 15V13H22.1257V15H2.01143Z" fill="#D71016"/>
</svg>
