<svg width="24" height="20" viewBox="0 0 24 20" fill="none" xmlns="http://www.w3.org/2000/svg">
<path d="M19 4H13C12.0868 4.00335 11.1921 4.25737 10.4134 4.73437C9.63465 5.21136 9.00186 5.89302 8.584 6.705C7.9844 6.24979 7.25282 6.0023 6.5 6C5.57174 6 4.6815 6.36875 4.02513 7.02513C3.36875 7.6815 3 8.57174 3 9.5C3.00293 10.02 3.12289 10.5327 3.351 11H2V1C2 0.734784 1.89464 0.48043 1.70711 0.292893C1.51957 0.105357 1.26522 0 1 0C0.734784 0 0.48043 0.105357 0.292893 0.292893C0.105357 0.48043 0 0.734784 0 1L0 19C0 19.2652 0.105357 19.5196 0.292893 19.7071C0.48043 19.8946 0.734784 20 1 20C1.26522 20 1.51957 19.8946 1.70711 19.7071C1.89464 19.5196 2 19.2652 2 19V17H22V19C22 19.2652 22.1054 19.5196 22.2929 19.7071C22.4804 19.8946 22.7348 20 23 20C23.2652 20 23.5196 19.8946 23.7071 19.7071C23.8946 19.5196 24 19.2652 24 19V9C23.9984 7.67441 23.4711 6.40356 22.5338 5.46622C21.5964 4.52888 20.3256 4.00159 19 4ZM10 9C10 8.20435 10.3161 7.44129 10.8787 6.87868C11.4413 6.31607 12.2044 6 13 6H19C19.7956 6 20.5587 6.31607 21.1213 6.87868C21.6839 7.44129 22 8.20435 22 9V11H10V9ZM5 9.5C5 9.20333 5.08797 8.91332 5.2528 8.66665C5.41762 8.41997 5.65189 8.22771 5.92597 8.11418C6.20006 8.00065 6.50166 7.97094 6.79264 8.02882C7.08361 8.0867 7.35088 8.22956 7.56066 8.43934C7.77044 8.64912 7.9133 8.91639 7.97118 9.20737C8.02906 9.49834 7.99935 9.79994 7.88582 10.074C7.77229 10.3481 7.58003 10.5824 7.33336 10.7472C7.08668 10.912 6.79667 11 6.5 11C6.10218 11 5.72064 10.842 5.43934 10.5607C5.15804 10.2794 5 9.89783 5 9.5ZM2 15V13H22V15H2Z" fill="black"/>
</svg>
