<svg width="25" height="24" viewBox="0 0 25 24" fill="none" xmlns="http://www.w3.org/2000/svg">
<g clip-path="url(#clip0_349_613)">
<path d="M24.1371 8.49999C24.1371 8.10216 23.9782 7.72063 23.6953 7.43933C23.4124 7.15802 23.0287 6.99999 22.6286 6.99999C22.6286 6.99999 22.0412 6.99999 22 7.00799C21.248 5.62252 20.3864 4.29869 19.4234 3.04899C18.9209 2.39928 18.2245 1.92429 17.4341 1.69199C15.663 0.835988 8.47415 0.835988 6.70309 1.69199C5.9126 1.92429 5.21628 2.39928 4.71378 3.04899C3.75076 4.29869 2.88917 5.62252 2.13714 7.00799C2.09591 6.99999 1.50857 6.99999 1.50857 6.99999C1.10847 6.99999 0.724762 7.15802 0.44185 7.43933C0.158938 7.72063 0 8.10216 0 8.49999L0 15C0.000194443 15.7019 0.186168 16.3915 0.539238 16.9994C0.892307 17.6072 1.40004 18.112 2.01143 18.463V20C2.01143 20.7956 2.32931 21.5587 2.89513 22.1213C3.46095 22.6839 4.22838 23 5.02857 23C5.82877 23 6.59619 22.6839 7.16201 22.1213C7.72784 21.5587 8.04571 20.7956 8.04571 20V19H16.0914V20C16.0914 20.7956 16.4093 21.5587 16.9751 22.1213C17.541 22.6839 18.3084 23 19.1086 23C19.9088 23 20.6762 22.6839 21.242 22.1213C21.8078 21.5587 22.1257 20.7956 22.1257 20V18.463C22.7371 18.112 23.2448 17.6072 23.5979 16.9994C23.951 16.3915 24.1369 15.7019 24.1371 15V8.49999ZM6.30985 4.26599C6.55623 3.95006 6.89655 3.71945 7.28238 3.60699C8.81006 2.85599 15.3281 2.85599 16.8548 3.60699C17.2406 3.71945 17.5809 3.95006 17.8273 4.26599C19.3546 6.25724 20.6124 8.43921 21.5685 10.756C15.2686 9.84198 8.86856 9.84198 2.56859 10.756C3.52473 8.43921 4.78256 6.25724 6.30985 4.26599ZM6.03429 20C6.03429 20.2652 5.92833 20.5196 5.73972 20.7071C5.55111 20.8946 5.2953 21 5.02857 21C4.76184 21 4.50603 20.8946 4.31742 20.7071C4.12882 20.5196 4.02286 20.2652 4.02286 20V19H6.03429V20ZM20.1143 20C20.1143 20.2652 20.0083 20.5196 19.8197 20.7071C19.6311 20.8946 19.3753 21 19.1086 21C18.8418 21 18.586 20.8946 18.3974 20.7071C18.2088 20.5196 18.1029 20.2652 18.1029 20V19H20.1143V20ZM20.1143 17H4.02286C3.48939 17 2.97778 16.7893 2.60056 16.4142C2.22335 16.0391 2.01143 15.5304 2.01143 15V12.857C5.3411 12.3509 8.70084 12.0646 12.0686 12C15.4363 12.0646 18.796 12.3509 22.1257 12.857V15C22.1257 15.5304 21.9138 16.0391 21.5366 16.4142C21.1594 16.7893 20.6478 17 20.1143 17ZM6.03429 15C6.03429 15.2652 5.92833 15.5196 5.73972 15.7071C5.55111 15.8946 5.2953 16 5.02857 16C4.76184 16 4.50603 15.8946 4.31742 15.7071C4.12882 15.5196 4.02286 15.2652 4.02286 15C4.02286 14.7348 4.12882 14.4804 4.31742 14.2929C4.50603 14.1053 4.76184 14 5.02857 14C5.2953 14 5.55111 14.1053 5.73972 14.2929C5.92833 14.4804 6.03429 14.7348 6.03429 15ZM20.1143 15C20.1143 15.2652 20.0083 15.5196 19.8197 15.7071C19.6311 15.8946 19.3753 16 19.1086 16C18.8418 16 18.586 15.8946 18.3974 15.7071C18.2088 15.5196 18.1029 15.2652 18.1029 15C18.1029 14.7348 18.2088 14.4804 18.3974 14.2929C18.586 14.1053 18.8418 14 19.1086 14C19.3753 14 19.6311 14.1053 19.8197 14.2929C20.0083 14.4804 20.1143 14.7348 20.1143 15Z" fill="#D71016"/>
</g>
<defs>
<clipPath id="clip0_349_613">
<rect width="24.1371" height="24" fill="white"/>
</clipPath>
</defs>
</svg>
