<svg width="24" height="24" viewBox="0 0 24 24" fill="none" xmlns="http://www.w3.org/2000/svg">
<g clip-path="url(#clip0_69_638)">
<path d="M24 8.49999C24 8.10216 23.842 7.72063 23.5607 7.43933C23.2794 7.15802 22.8978 6.99999 22.5 6.99999C22.5 6.99999 21.916 6.99999 21.875 7.00799C21.1272 5.62252 20.2705 4.29869 19.313 3.04899C18.8134 2.39928 18.121 1.92429 17.335 1.69199C15.574 0.835988 8.426 0.835988 6.665 1.69199C5.879 1.92429 5.18664 2.39928 4.687 3.04899C3.72945 4.29869 2.87275 5.62252 2.125 7.00799C2.084 6.99999 1.5 6.99999 1.5 6.99999C1.10218 6.99999 0.720644 7.15802 0.43934 7.43933C0.158035 7.72063 0 8.10216 0 8.49999L0 15C0.000193338 15.7019 0.18511 16.3915 0.536174 16.9994C0.887237 17.6072 1.39208 18.112 2 18.463V20C2 20.7956 2.31607 21.5587 2.87868 22.1213C3.44129 22.6839 4.20435 23 5 23C5.79565 23 6.55871 22.6839 7.12132 22.1213C7.68393 21.5587 8 20.7956 8 20V19H16V20C16 20.7956 16.3161 21.5587 16.8787 22.1213C17.4413 22.6839 18.2044 23 19 23C19.7956 23 20.5587 22.6839 21.1213 22.1213C21.6839 21.5587 22 20.7956 22 20V18.463C22.6079 18.112 23.1128 17.6072 23.4638 16.9994C23.8149 16.3915 23.9998 15.7019 24 15V8.49999ZM6.274 4.26599C6.51898 3.95006 6.85736 3.71945 7.241 3.60699C8.76 2.85599 15.241 2.85599 16.759 3.60699C17.1426 3.71945 17.481 3.95006 17.726 4.26599C19.2446 6.25724 20.4953 8.43921 21.446 10.756C15.1818 9.84198 8.81817 9.84198 2.554 10.756C3.5047 8.43921 4.75538 6.25724 6.274 4.26599ZM6 20C6 20.2652 5.89464 20.5196 5.70711 20.7071C5.51957 20.8946 5.26522 21 5 21C4.73478 21 4.48043 20.8946 4.29289 20.7071C4.10536 20.5196 4 20.2652 4 20V19H6V20ZM20 20C20 20.2652 19.8946 20.5196 19.7071 20.7071C19.5196 20.8946 19.2652 21 19 21C18.7348 21 18.4804 20.8946 18.2929 20.7071C18.1054 20.5196 18 20.2652 18 20V19H20V20ZM20 17H4C3.46957 17 2.96086 16.7893 2.58579 16.4142C2.21071 16.0391 2 15.5304 2 15V12.857C5.31076 12.3509 8.6514 12.0646 12 12C15.3486 12.0646 18.6892 12.3509 22 12.857V15C22 15.5304 21.7893 16.0391 21.4142 16.4142C21.0391 16.7893 20.5304 17 20 17ZM6 15C6 15.2652 5.89464 15.5196 5.70711 15.7071C5.51957 15.8946 5.26522 16 5 16C4.73478 16 4.48043 15.8946 4.29289 15.7071C4.10536 15.5196 4 15.2652 4 15C4 14.7348 4.10536 14.4804 4.29289 14.2929C4.48043 14.1053 4.73478 14 5 14C5.26522 14 5.51957 14.1053 5.70711 14.2929C5.89464 14.4804 6 14.7348 6 15ZM20 15C20 15.2652 19.8946 15.5196 19.7071 15.7071C19.5196 15.8946 19.2652 16 19 16C18.7348 16 18.4804 15.8946 18.2929 15.7071C18.1054 15.5196 18 15.2652 18 15C18 14.7348 18.1054 14.4804 18.2929 14.2929C18.4804 14.1053 18.7348 14 19 14C19.2652 14 19.5196 14.1053 19.7071 14.2929C19.8946 14.4804 20 14.7348 20 15Z" fill="black"/>
</g>
<defs>
<clipPath id="clip0_69_638">
<rect width="24" height="24" fill="white"/>
</clipPath>
</defs>
</svg>
