<svg width="38" height="38" viewBox="0 0 38 38" fill="none" xmlns="http://www.w3.org/2000/svg">
<g clip-path="url(#clip0_39_821)">
<path d="M23.5109 20.1828L14.8849 13.4298C13.5803 12.4086 11.7547 12.407 10.45 13.4298L1.82242 20.1812C0.665 21.0884 0 22.4533 0 23.9226V38H25.3333V23.9226C25.3333 22.4517 24.6683 21.0884 23.5109 20.1828ZM22.1667 34.8333H3.16667V23.9226C3.16667 23.4318 3.38833 22.9773 3.77467 22.6749L12.4007 15.9252C12.5558 15.8017 12.7743 15.8032 12.9327 15.9252L21.5587 22.6781C21.945 22.9789 22.1667 23.4349 22.1667 23.9242V34.8333ZM9.5 23.75H15.8333V30.0833H9.5V23.75ZM28.5 20.5833H31.6667V23.75H28.5V20.5833ZM28.5 26.9167H31.6667V30.0833H28.5V26.9167ZM22.1667 7.91667H25.3333V11.0833H22.1667V7.91667ZM31.6667 11.0833H28.5V7.91667H31.6667V11.0833ZM22.1667 14.25H25.3333V17.4167H22.1667V14.25ZM28.5 14.25H31.6667V17.4167H28.5V14.25ZM38 4.75V38H28.5V34.8333H34.8333V4.75C34.8333 3.876 34.124 3.16667 33.25 3.16667H20.5833C19.7093 3.16667 19 3.876 19 4.75V12.6318L15.8333 10.1539V4.75C15.8333 4.72308 15.8333 4.69458 15.8349 4.66767C15.8793 2.08683 17.9914 0 20.5833 0H33.25C35.8688 0 38 2.13117 38 4.75Z" fill="#D71016"/>
</g>
<defs>
<clipPath id="clip0_39_821">
<rect width="38" height="38" fill="white"/>
</clipPath>
</defs>
</svg>
