<svg width="38" height="38" viewBox="0 0 38 38" fill="none" xmlns="http://www.w3.org/2000/svg">
<g clip-path="url(#clip0_25_704)">
<path d="M10.2917 1.4519C12.0746 1.47964 13.8186 1.97734 15.3476 2.89475C16.8766 3.81216 18.1365 5.1168 19 6.6769C19.8635 5.1168 21.1234 3.81216 22.6524 2.89475C24.1814 1.97734 25.9254 1.47964 27.7083 1.4519C30.5505 1.57539 33.2283 2.81872 35.1567 4.91027C37.0851 7.00182 38.1073 9.77157 38 12.6144C38 23.3415 20.653 35.7311 19.9152 36.2567L19 36.9043L18.0848 36.2567C17.347 35.7342 -3.8147e-06 23.3415 -3.8147e-06 12.6144C-0.107273 9.77157 0.91494 7.00182 2.84332 4.91027C4.7717 2.81872 7.44949 1.57539 10.2917 1.4519ZM19 33.0062C24.1506 29.1587 34.8333 19.7062 34.8333 12.6144C34.9416 10.611 34.2532 8.64614 32.9185 7.14826C31.5838 5.65038 29.7109 4.74104 27.7083 4.61857C25.7058 4.74104 23.8329 5.65038 22.4982 7.14826C21.1634 8.64614 20.4751 10.611 20.5833 12.6144H17.4167C17.5249 10.611 16.8366 8.64614 15.5018 7.14826C14.1671 5.65038 12.2942 4.74104 10.2917 4.61857C8.28912 4.74104 6.41623 5.65038 5.08149 7.14826C3.74675 8.64614 3.05843 10.611 3.16666 12.6144C3.16666 19.7093 13.8494 29.1587 19 33.0062Z" fill="#D71016"/>
</g>
<defs>
<clipPath id="clip0_25_704">
<rect width="38" height="38" fill="white" transform="matrix(-1 0 0 1 38 0)"/>
</clipPath>
</defs>
</svg>
