<svg width="16" height="16" viewBox="0 0 16 16" fill="none" xmlns="http://www.w3.org/2000/svg">
<g clip-path="url(#clip0_230_179)">
<path d="M7.97199 16.0054L7.50727 15.607C6.86661 15.0706 1.27264 10.2394 1.27264 6.70557C1.27264 3.00563 4.27205 0.00622559 7.97199 0.00622559C11.6719 0.00622559 14.6713 3.00563 14.6713 6.70557C14.6713 10.2395 9.07736 15.0706 8.43936 15.6097L7.97199 16.0054ZM7.97199 1.45482C5.07346 1.4581 2.72455 3.80701 2.72127 6.70554C2.72127 8.9256 6.16289 12.4721 7.97199 14.0953C9.78111 12.4714 13.2227 8.92291 13.2227 6.70554C13.2194 3.80701 10.8706 1.45813 7.97199 1.45482Z" fill="white"/>
<path d="M7.97197 9.36117C6.50534 9.36117 5.31641 8.17224 5.31641 6.70561C5.31641 5.23899 6.50534 4.05005 7.97197 4.05005C9.43859 4.05005 10.6275 5.23899 10.6275 6.70561C10.6275 8.17224 9.43862 9.36117 7.97197 9.36117ZM7.97197 5.3778C7.23866 5.3778 6.64419 5.97227 6.64419 6.70558C6.64419 7.43889 7.23866 8.03336 7.97197 8.03336C8.70528 8.03336 9.29975 7.43889 9.29975 6.70558C9.29975 5.97227 8.70531 5.3778 7.97197 5.3778Z" fill="white"/>
</g>
<defs>
<clipPath id="clip0_230_179">
<rect width="16" height="16" fill="white"/>
</clipPath>
</defs>
</svg>
