<svg width="260" height="40" viewBox="0 0 260 40" fill="none" xmlns="http://www.w3.org/2000/svg">
<g clip-path="url(#clip0_12_21)">
<path fill-rule="evenodd" clip-rule="evenodd" d="M183.924 2.59373e-07H185.965C187.648 0.121909 189.295 0.548588 190.776 1.28707C199.36 5.56324 201.347 18.0284 192.482 24.513C191.803 25.0123 191.149 25.3851 190.33 25.718C188.565 26.4354 186.895 26.923 184.814 26.923C182.733 26.923 180.654 26.3533 179.321 25.6945C178.512 25.2936 177.915 24.9982 177.16 24.4989C172.056 21.1136 169.942 13.785 172.474 8.15145C173.533 5.79533 174.776 4.08158 176.791 2.58586C178.856 1.05263 181.376 0.180518 183.927 -0.00234413M184.814 5.27722C185.987 5.27722 187.209 5.61247 188.004 5.9782C192.928 8.24757 193.91 15.2995 190.616 18.7856C188.308 21.2285 187.275 21.4652 184.104 21.4652C178.342 21.4652 174.415 12.941 179.361 7.60286C180.505 6.36502 182.476 5.27488 184.811 5.27488L184.814 5.27722Z" fill="#12100C"/>
<path fill-rule="evenodd" clip-rule="evenodd" d="M88.7816 0H89.2086C92.5497 0.0164107 96.1126 2.18966 97.8067 3.91044C99.9492 6.08369 101.565 9.51119 101.565 12.6691C101.565 17.3532 100.662 19.9531 97.3584 23.2728C89.8245 30.8428 74.8203 26.2244 74.8203 13.0207C74.8203 11.2414 75.3866 9.10561 75.9977 7.85605C77.0807 5.63826 78.2652 4.03235 80.2307 2.56008C80.8678 2.08182 81.4624 1.71844 82.1938 1.34568C84.6501 0.09612 86.205 0.00468878 88.7816 0ZM80.4902 13.5506C80.4902 9.10561 83.6756 5.27957 88.2837 5.27957C92.4152 5.27957 95.9002 8.91103 95.9002 13.0231C95.9002 15.5128 95.3788 17.4563 93.8239 19.0552C91.5682 21.3715 90.2869 21.4699 87.3989 21.4699C85.5679 21.4699 83.5198 20.2344 82.51 18.9356C81.4199 17.5314 80.4902 15.9536 80.4902 13.5506Z" fill="#12100C"/>
<path fill-rule="evenodd" clip-rule="evenodd" d="M246.414 0H246.841C250.184 0.0164107 253.747 2.18966 255.441 3.91044C255.873 4.34885 256.531 5.15063 256.866 5.6617C258.207 7.70601 259.009 10.0762 259.2 12.4769V14.6993C259.063 16.3896 258.61 18.0448 257.81 19.5616C251.244 32.0174 232.457 27.8326 232.457 13.0231C232.457 11.2437 233.023 9.10796 233.635 7.8584C234.501 6.08604 234.958 5.42961 236.204 4.07455L237.868 2.56008C238.505 2.08182 239.099 1.71844 239.831 1.34568C242.282 0.09612 243.837 0.00703317 246.414 0ZM238.122 13.5506C238.122 9.10562 241.305 5.27957 245.916 5.27957C250.05 5.27957 253.532 8.91103 253.532 13.0231C253.532 15.5457 253.042 17.4212 251.456 19.0552C249.205 21.3715 247.914 21.4699 245.031 21.4699C241.409 21.4699 238.125 17.5407 238.125 13.5506H238.122Z" fill="#12100C"/>
<path fill-rule="evenodd" clip-rule="evenodd" d="M106.174 26.5737H111.841V17.4212H113.082C113.236 17.9909 116.921 23.4955 117.402 24.2152C117.964 25.0475 118.398 25.7883 118.924 26.5737H125.479C125.267 25.7813 123.011 22.8133 122.398 21.8919C121.848 21.0667 121.409 20.354 120.824 19.5827C120.265 18.8419 119.705 18.0448 119.281 17.2453C119.722 17.0367 120.217 16.9968 120.755 16.7741C125.689 14.7345 127.765 6.96519 122.605 2.15215C121.265 0.902592 118.837 0.175831 116.27 0.175831H106.174V26.5737ZM116.621 12.4956H111.839V5.27957C114.798 5.27957 117.773 4.76615 118.934 6.32517C120.81 8.83836 119.366 12.4956 116.619 12.4956H116.621Z" fill="#12100C"/>
<path fill-rule="evenodd" clip-rule="evenodd" d="M52.8603 0.703317V26.0438C52.8603 27.3051 56.7299 26.0579 58.1196 23.1767C59.4103 20.4994 57.4802 17.5876 59.2168 17.4024C62.8552 17.0203 68.0815 18.9591 71.3164 13.4123C73.3692 9.88864 72.4914 3.4275 68.3316 1.34334C66.6729 0.515766 65.2548 0.173485 63.1312 0.173485H53.3888C52.9806 0.173485 52.8579 0.297738 52.8579 0.703317M63.4852 12.4933H58.5278V5.27722H64.0184C65.3775 5.27722 66.6752 7.02848 66.6752 8.4445C66.6752 10.4841 65.965 12.4933 63.4875 12.4933H63.4852Z" fill="#12100C"/>
<path fill-rule="evenodd" clip-rule="evenodd" d="M152.399 26.5737H158.066V16.0145H166.745V11.0866H158.066V5.27957H169.048V0.703317C169.048 0.297738 168.925 0.173485 168.517 0.173485H152.399V26.5713V26.5737Z" fill="#12100C"/>
<path fill-rule="evenodd" clip-rule="evenodd" d="M128.49 5.27957H135.576V26.5737H141.243V5.80706C141.243 5.40148 141.366 5.27957 141.774 5.27957H148.329V0.175831H128.492V5.27957H128.49Z" fill="#12100C"/>
<path fill-rule="evenodd" clip-rule="evenodd" d="M202.701 0.703319V26.0438C202.701 26.4494 202.824 26.5737 203.232 26.5737H218.288V21.4699H208.371V0.175831H203.235C202.826 0.175831 202.704 0.300084 202.704 0.705663" fill="#12100C"/>
<path fill-rule="evenodd" clip-rule="evenodd" d="M222.184 0.703319V26.0438C222.184 26.4494 222.307 26.5737 222.715 26.5737H227.851V0.175831H222.715C222.307 0.175831 222.184 0.300084 222.184 0.705663" fill="#12100C"/>
<path d="M42.8536 4.89509H8.09552V35.7004H42.8536V4.89509Z" fill="white"/>
<path fill-rule="evenodd" clip-rule="evenodd" d="M9.89818 33.07H15.4265V12.6433H34.5103V19.0787H25.4214V24.6442H40.1307V7.10585H9.89818V33.07ZM17.6657 33.07H39.9537V27.5325H23.1941V14.8564H17.6657V33.0723V33.07ZM5.92711 39.9859H44.0663C44.5689 39.9859 44.9795 39.578 44.9795 39.0787V1.00574C44.9795 0.506385 44.5689 0.0984612 44.0663 0.0984612H5.92711C5.42453 0.0984612 5.01398 0.506385 5.01398 1.00574V39.0763C5.01398 39.5757 5.42453 39.9836 5.92711 39.9836V39.9859Z" fill="#D71016"/>
<path d="M3.1408 21.2352L3.5776 20.8032C3.9184 21.1488 4.0768 21.5952 4.0768 22.08C4.0768 23.328 3.2176 23.856 2.344 23.8608C1.4656 23.8656 0.5728 23.2944 0.5728 22.08C0.5728 21.624 0.7456 21.192 1.0864 20.8464L1.4944 21.2688C1.2784 21.4896 1.1776 21.7872 1.1776 22.08C1.1776 22.8912 1.7824 23.2416 2.344 23.2368C2.9008 23.232 3.4816 22.9104 3.4816 22.08C3.4816 21.7872 3.3616 21.456 3.1408 21.2352ZM1.624 20.0632H4.504C5.0896 20.0632 5.4688 20.3176 5.4688 20.8504C5.4688 21.0232 5.4208 21.2056 5.3104 21.3737L4.8544 21.1624C4.9024 21.0616 4.9264 20.9656 4.9216 20.8792C4.912 20.6872 4.7632 20.644 4.504 20.644H1.624V20.0632ZM0.9616 20.6968C1.4176 20.6968 1.4176 20.0056 0.9616 20.0056C0.5056 20.0056 0.5056 20.6968 0.9616 20.6968ZM3.6976 19.5802C3.2416 19.5802 3.2416 18.889 3.6976 18.889C4.1536 18.889 4.1536 19.5802 3.6976 19.5802ZM4 17.5818H3.4624V17.0778H1.216V17.601H0.64V16.449H3.4624V15.9834H4L4 17.5818ZM2.0752 15.0803H2.56C3.7792 15.0803 3.7792 13.3907 2.56 13.3907H2.0752C0.8752 13.3907 0.8608 15.0803 2.0752 15.0803ZM2.56 15.7091H2.0752C0.0687995 15.7091 0.0735998 12.7619 2.0752 12.7619H2.56C4.5616 12.7619 4.5664 15.7091 2.56 15.7091ZM3.6976 12.3333C3.2416 12.3333 3.2416 11.6421 3.6976 11.6421C4.1536 11.6421 4.1536 12.3333 3.6976 12.3333ZM2.9392 9.04444H2.9584H2.4544C2.6848 9.19324 2.8096 9.55804 2.8096 9.82204C2.8096 10.4988 2.5264 11.2092 1.6912 11.2092C0.9472 11.2092 0.5776 10.494 0.5776 9.81724C0.5776 9.13084 0.9472 8.41564 1.7008 8.41564H2.9536C3.7024 8.41564 4.0528 9.10684 4.0528 9.79804C4.0528 10.5276 3.7648 11.1948 3.0592 11.1948V10.5612C3.3568 10.5612 3.5056 10.1676 3.5056 9.80764C3.5104 9.42844 3.304 9.04444 2.9392 9.04444ZM1.144 9.81724C1.144 10.2156 1.3216 10.5804 1.6912 10.5804C2.0608 10.5804 2.2576 10.2444 2.2576 9.82204C2.2576 9.39964 2.0656 9.03964 1.6912 9.04444C1.3216 9.04924 1.144 9.40444 1.144 9.81724ZM2.536 6.64537V7.16857H2.0176V6.68377C2.0176 6.34297 1.9264 5.98297 1.6144 5.97817C1.4224 5.97817 1.168 6.13177 1.168 6.66937C1.168 6.96697 1.2736 7.37017 1.5808 7.37017L1.5808 8.00377C0.856 8.00377 0.592 7.28377 0.592 6.66457C0.592 6.03097 0.8992 5.34937 1.6144 5.34457C1.8784 5.34457 2.1856 5.51737 2.2768 5.81017C2.3824 5.48857 2.6992 5.26297 2.9824 5.26297C3.8032 5.26297 4.048 6.03577 4.048 6.68377C4.048 7.32217 3.7792 8.05177 3.016 8.05657V7.41817C3.3616 7.41817 3.4816 6.95257 3.4816 6.67897C3.4816 6.35737 3.3472 5.93017 2.9872 5.93017C2.7856 5.93017 2.536 6.04057 2.536 6.64537ZM2.0752 4.19595H2.56C3.7792 4.19595 3.7792 2.50635 2.56 2.50635H2.0752C0.8752 2.50635 0.8608 4.19595 2.0752 4.19595ZM2.56 4.82475H2.0752C0.0687995 4.82475 0.0735998 1.87755 2.0752 1.87755H2.56C4.5616 1.87755 4.5664 4.82475 2.56 4.82475Z" fill="#12100C"/>
<path d="M130.153 36.6006L132.636 31.2015L135.104 36.6006H130.153ZM127.94 39.8406H128.664L129.858 37.2289H135.399L136.592 39.8406H137.357L132.982 30.4419H132.312L127.938 39.8406H127.94ZM125.163 39.8406H125.861V30.5099H125.163V39.8406ZM116.067 35.3487V31.1499H119.274C120.991 31.1499 121.971 31.9236 121.971 33.1895V33.2153C121.971 34.5493 120.803 35.3487 119.233 35.3487H116.067ZM115.369 39.8406H116.067V35.9747H119.139L122.131 39.8406H123.016L119.918 35.8551C121.487 35.6418 122.669 34.7486 122.669 33.1895V33.1638C122.669 32.4839 122.4 31.8697 121.959 31.4313C121.383 30.8592 120.484 30.5123 119.316 30.5123H115.371V39.8429L115.369 39.8406ZM108.391 29.5089H108.996L110.43 28.3085L109.64 27.9358L108.391 29.5089ZM106.178 36.6006L108.66 31.2015L111.129 36.6006H106.178ZM103.965 39.8406H104.689L105.883 37.2289H111.423L112.617 39.8406H113.382L109.007 30.4419H108.337L103.963 39.8406H103.965ZM101.188 39.8406H101.886V30.5099H101.188V39.8406ZM92.8564 39.8406H99.069V39.2006H93.5548V30.5099H92.8564V39.8406ZM89.2747 39.8406H89.9731V30.5099H89.2747V39.8406ZM86.2285 37.2946C86.2285 38.4668 85.2092 39.2006 83.6 39.2006H80.1929V35.4542H83.3735C85.2375 35.4542 86.2309 36.1083 86.2309 37.2664V37.2922L86.2285 37.2946ZM85.7047 32.8965C85.7047 34.1367 84.6854 34.8166 83.2909 34.8166H80.1929V31.1499H83.3594C84.8765 31.1499 85.7071 31.8439 85.7071 32.8684V32.8942L85.7047 32.8965ZM79.4921 39.8406H83.5717C85.5985 39.8406 86.9388 38.8536 86.9388 37.2946V37.2688C86.9388 35.9888 85.9454 35.337 84.8199 35.0416C85.5844 34.7228 86.4173 34.1085 86.4173 32.8285V32.8027C86.4173 32.2307 86.2167 31.736 85.8133 31.3375C85.2895 30.817 84.4447 30.5099 83.3712 30.5099H79.4945V39.8406H79.4921ZM72.4089 39.3741C70.0871 39.3741 68.3977 37.4821 68.3977 35.1752V35.1495C68.3977 32.8426 70.0611 30.9764 72.3829 30.9764C74.7047 30.9764 76.3941 32.8684 76.3941 35.1752V35.201C76.3941 37.5079 74.7306 39.3741 72.4089 39.3741ZM72.3829 40C75.2261 40 77.1184 37.733 77.1184 35.1752V35.1495C77.1184 32.6034 75.2544 30.3505 72.4089 30.3505C69.5633 30.3505 67.6733 32.6175 67.6733 35.1752V35.201C67.6733 37.747 69.5373 40 72.3829 40ZM56.4444 39.8406H57.1145V31.736L60.8307 37.107H60.885L64.6012 31.736V39.8406H65.2996V30.5099H64.6413L60.8708 36.0286L57.1003 30.5099H56.442V39.8406H56.4444ZM52.8626 39.8406H53.561V30.5099H52.8626V39.8406Z" fill="#12100C"/>
</g>
<defs>
<clipPath id="clip0_12_21">
<rect width="259.2" height="40" fill="white"/>
</clipPath>
</defs>
</svg>
