<svg width="282" height="43" viewBox="0 0 282 43" fill="none" xmlns="http://www.w3.org/2000/svg">
<g clip-path="url(#clip0_77_840)">
<path fill-rule="evenodd" clip-rule="evenodd" d="M200.103 1.77787e-05H202.323C204.154 0.131069 205.946 0.589749 207.558 1.38362C216.897 5.9805 219.058 19.3805 209.414 26.3514C208.674 26.8882 207.963 27.289 207.072 27.6468C205.152 28.418 203.335 28.9422 201.071 28.9422C198.807 28.9422 196.545 28.3298 195.095 27.6216C194.214 27.1907 193.565 26.8731 192.743 26.3363C187.191 22.6971 184.89 14.8189 187.645 8.76282C188.798 6.23 190.15 4.39024 192.343 2.77982C194.589 1.1316 197.33 0.194075 200.105 -0.00250244M201.071 5.67303C202.347 5.67303 203.676 6.03343 204.541 6.42658C209.899 8.86615 210.967 16.447 207.383 20.1945C204.873 22.8206 203.748 23.0752 200.298 23.0752C194.029 23.0752 189.758 13.9116 195.138 8.17309C196.383 6.84242 198.527 5.67051 201.068 5.67051L201.071 5.67303Z" fill="white"/>
<path fill-rule="evenodd" clip-rule="evenodd" d="M96.5911 0H97.0557C100.691 0.0176415 104.567 2.35389 106.41 4.20373C108.741 6.53997 110.499 10.2245 110.499 13.6193C110.499 18.6547 109.516 21.4496 105.922 25.0182C97.7257 33.156 81.4017 28.1912 81.4017 13.9973C81.4017 12.0845 82.0178 9.78854 82.6827 8.44526C83.861 6.06113 85.1496 4.33478 87.288 2.75208C87.9811 2.23796 88.628 1.84732 89.4238 1.44661C92.0961 0.103329 93.7878 0.00504044 96.5911 0ZM87.5704 14.5669C87.5704 9.78854 91.0359 5.67554 96.0494 5.67554C100.544 5.67554 104.336 9.57936 104.336 13.9998C104.336 16.6763 103.769 18.7656 102.077 20.4844C99.6228 22.9743 98.2289 23.0802 95.0868 23.0802C93.0947 23.0802 90.8665 21.752 89.7678 20.3558C88.5818 18.8462 87.5704 17.1501 87.5704 14.5669Z" fill="white"/>
<path fill-rule="evenodd" clip-rule="evenodd" d="M268.089 0H268.554C272.191 0.0176415 276.068 2.35389 277.911 4.20373C278.38 4.67501 279.097 5.53692 279.461 6.08633C280.919 8.28396 281.792 10.8319 282 13.4126V15.8018C281.851 17.6189 281.358 19.3981 280.488 21.0287C273.344 34.4186 252.905 29.9201 252.905 13.9998C252.905 12.087 253.521 9.79106 254.186 8.44778C255.128 6.54249 255.626 5.83683 256.981 4.38014L258.791 2.75208C259.484 2.23796 260.131 1.84732 260.927 1.44661C263.594 0.103329 265.286 0.00756066 268.089 0ZM259.068 14.5669C259.068 9.78854 262.531 5.67554 267.547 5.67554C272.045 5.67554 275.834 9.57936 275.834 13.9998C275.834 16.7116 275.3 18.7278 273.575 20.4844C271.126 22.9743 269.722 23.0802 266.585 23.0802C262.644 23.0802 259.071 18.8563 259.071 14.5669H259.068Z" fill="white"/>
<path fill-rule="evenodd" clip-rule="evenodd" d="M115.513 28.5667H121.679V18.7278H123.029C123.196 19.3402 127.206 25.2577 127.73 26.0314C128.341 26.926 128.813 27.7224 129.385 28.5667H136.517C136.286 27.7149 133.832 24.5243 133.164 23.5338C132.566 22.6467 132.088 21.8806 131.452 21.0514C130.843 20.255 130.235 19.3981 129.773 18.5387C130.253 18.3144 130.792 18.2716 131.377 18.0322C136.745 15.8396 139.004 7.48758 133.39 2.31357C131.932 0.970294 129.29 0.189026 126.497 0.189026H115.513V28.5667ZM126.88 13.4328H121.676V5.67555C124.896 5.67555 128.133 5.12362 129.396 6.79956C131.436 9.50124 129.865 13.4328 126.877 13.4328H126.88Z" fill="white"/>
<path fill-rule="evenodd" clip-rule="evenodd" d="M57.51 0.756093V27.9972C57.51 29.353 61.72 28.0123 63.232 24.9149C64.6362 22.0368 62.5363 18.9067 64.4257 18.7076C68.3841 18.2968 74.0702 20.3811 77.5896 14.4182C79.823 10.6303 78.868 3.68459 74.3423 1.44411C72.5376 0.554476 70.9948 0.186523 68.6845 0.186523H58.085C57.6409 0.186523 57.5074 0.320095 57.5074 0.756093M69.0695 13.4303H63.6761V5.67304H69.6497C71.1283 5.67304 72.5402 7.55565 72.5402 9.07786C72.5402 11.2705 71.7675 13.4303 69.0721 13.4303H69.0695Z" fill="white"/>
<path fill-rule="evenodd" clip-rule="evenodd" d="M165.804 28.5667H171.97V17.2157H181.412V11.9181H171.97V5.67556H183.918V0.756093C183.918 0.320095 183.784 0.186523 183.34 0.186523H165.804V28.5642V28.5667Z" fill="white"/>
<path fill-rule="evenodd" clip-rule="evenodd" d="M139.792 5.67555H147.501V28.5667H153.667V6.2426C153.667 5.8066 153.801 5.67555 154.245 5.67555H161.376V0.189026H139.795V5.67555H139.792Z" fill="white"/>
<path fill-rule="evenodd" clip-rule="evenodd" d="M220.532 0.756075V27.9971C220.532 28.4331 220.665 28.5667 221.109 28.5667H237.49V23.0802H226.7V0.189026H221.112C220.668 0.189026 220.534 0.322598 220.534 0.758596" fill="white"/>
<path fill-rule="evenodd" clip-rule="evenodd" d="M241.728 0.756075V27.9971C241.728 28.4331 241.861 28.5667 242.305 28.5667H247.894V0.189026H242.305C241.861 0.189026 241.728 0.322598 241.728 0.758596" fill="white"/>
<path d="M46.6231 5.26221H8.80762V38.3779H46.6231V5.26221Z" fill="white"/>
<path fill-rule="evenodd" clip-rule="evenodd" d="M10.7689 35.5503H16.7835V13.5916H37.546V20.5096H27.6576V26.4926H43.6607V7.63882H10.7689V35.5503ZM19.2197 35.5503H43.4682V29.5975H25.2343V15.9707H19.2197V35.5528V35.5503ZM6.44853 42.9849H47.9426C48.4894 42.9849 48.9361 42.5464 48.9361 42.0096V1.08372C48.9361 0.546917 48.4894 0.108398 47.9426 0.108398H6.44853C5.90175 0.108398 5.45508 0.546917 5.45508 1.08372V42.0096C5.45508 42.5464 5.90175 42.9849 6.44853 42.9849Z" fill="#D71016"/>
<path d="M4.926 30.544L5.472 30.004C5.898 30.436 6.096 30.994 6.096 31.6C6.096 33.16 5.022 33.82 3.93 33.826C2.832 33.832 1.716 33.118 1.716 31.6C1.716 31.03 1.932 30.49 2.358 30.058L2.868 30.586C2.598 30.862 2.472 31.234 2.472 31.6C2.472 32.614 3.228 33.052 3.93 33.046C4.626 33.04 5.352 32.638 5.352 31.6C5.352 31.234 5.202 30.82 4.926 30.544ZM3.03 29.0791H6.63C7.362 29.0791 7.836 29.3971 7.836 30.0631C7.836 30.2791 7.776 30.5071 7.638 30.7171L7.068 30.4531C7.128 30.3271 7.158 30.2071 7.152 30.0991C7.14 29.8591 6.954 29.8051 6.63 29.8051H3.03V29.0791ZM2.202 29.8711C2.772 29.8711 2.772 29.0071 2.202 29.0071C1.632 29.0071 1.632 29.8711 2.202 29.8711ZM5.622 28.4753C5.052 28.4753 5.052 27.6113 5.622 27.6113C6.192 27.6113 6.192 28.4753 5.622 28.4753ZM6 25.9772H5.328V25.3472H2.52V26.0012H1.8V24.5612H5.328V23.9792H6V25.9772ZM3.594 22.8504H4.2C5.724 22.8504 5.724 20.7384 4.2 20.7384H3.594C2.094 20.7384 2.076 22.8504 3.594 22.8504ZM4.2 23.6364H3.594C1.086 23.6364 1.092 19.9524 3.594 19.9524H4.2C6.702 19.9524 6.708 23.6364 4.2 23.6364ZM5.622 19.4167C5.052 19.4167 5.052 18.5527 5.622 18.5527C6.192 18.5527 6.192 19.4167 5.622 19.4167ZM4.674 15.3055H4.698H4.068C4.356 15.4915 4.512 15.9475 4.512 16.2775C4.512 17.1235 4.158 18.0115 3.114 18.0115C2.184 18.0115 1.722 17.1175 1.722 16.2715C1.722 15.4135 2.184 14.5195 3.126 14.5195H4.692C5.628 14.5195 6.066 15.3835 6.066 16.2475C6.066 17.1595 5.706 17.9935 4.824 17.9935V17.2015C5.196 17.2015 5.382 16.7095 5.382 16.2595C5.388 15.7855 5.13 15.3055 4.674 15.3055ZM2.43 16.2715C2.43 16.7695 2.652 17.2255 3.114 17.2255C3.576 17.2255 3.822 16.8055 3.822 16.2775C3.822 15.7495 3.582 15.2995 3.114 15.3055C2.652 15.3115 2.43 15.7555 2.43 16.2715ZM4.17 12.3067V12.9607H3.522V12.3547C3.522 11.9287 3.408 11.4787 3.018 11.4727C2.778 11.4727 2.46 11.6647 2.46 12.3367C2.46 12.7087 2.592 13.2127 2.976 13.2127V14.0047C2.07 14.0047 1.74 13.1047 1.74 12.3307C1.74 11.5387 2.124 10.6867 3.018 10.6807C3.348 10.6807 3.732 10.8967 3.846 11.2627C3.978 10.8607 4.374 10.5787 4.728 10.5787C5.754 10.5787 6.06 11.5447 6.06 12.3547C6.06 13.1527 5.724 14.0647 4.77 14.0707V13.2727C5.202 13.2727 5.352 12.6907 5.352 12.3487C5.352 11.9467 5.184 11.4127 4.734 11.4127C4.482 11.4127 4.17 11.5507 4.17 12.3067ZM3.594 9.24494H4.2C5.724 9.24494 5.724 7.13294 4.2 7.13294H3.594C2.094 7.13294 2.076 9.24494 3.594 9.24494ZM4.2 10.0309H3.594C1.086 10.0309 1.092 6.34694 3.594 6.34694H4.2C6.702 6.34694 6.708 10.0309 4.2 10.0309Z" fill="white"/>
<path d="M141.602 39.3457L144.303 33.5416L146.988 39.3457H141.602ZM139.194 42.8286H139.982L141.281 40.0211H147.309L148.608 42.8286H149.439L144.68 32.7251H143.951L139.192 42.8286H139.194ZM136.173 42.8286H136.932V32.7981H136.173V42.8286ZM126.277 37.9999V33.4862H129.765C131.634 33.4862 132.699 34.3178 132.699 35.6788V35.7065C132.699 37.1405 131.429 37.9999 129.722 37.9999H126.277ZM125.517 42.8286H126.277V38.6728H129.619L132.874 42.8286H133.837L130.466 38.5442C132.173 38.3149 133.459 37.3547 133.459 35.6788V35.651C133.459 34.9202 133.167 34.2599 132.687 33.7886C132.06 33.1711 131.082 32.8007 129.811 32.8007H125.519V42.8311L125.517 42.8286ZM117.926 31.722H118.583L120.144 30.4317L119.284 30.0309L117.926 31.722ZM115.518 39.3457L118.219 33.5416L120.904 39.3457H115.518ZM113.11 42.8286H113.898L115.197 40.0211H121.225L122.524 42.8286H123.355L118.596 32.7251H117.867L113.108 42.8286H113.11ZM110.089 42.8286H110.849V32.7981H110.089V42.8286ZM101.024 42.8286H107.783V42.1406H101.784V32.7981H101.024V42.8286ZM97.1275 42.8286H97.8874V32.7981H97.1275V42.8286ZM93.8135 40.0917C93.8135 41.3518 92.7045 42.1406 90.9538 42.1406H87.2469V38.1133H90.7073C92.7353 38.1133 93.816 38.8164 93.816 40.0614V40.0891L93.8135 40.0917ZM93.2436 35.3637C93.2436 36.6969 92.1346 37.4278 90.6175 37.4278H87.2469V33.4862H90.6919C92.3425 33.4862 93.2461 34.2322 93.2461 35.336V35.3637H93.2436ZM86.4845 42.8286H90.923C93.1281 42.8286 94.5862 41.7676 94.5862 40.0917V40.0639C94.5862 38.6879 93.5054 37.9873 92.2809 37.6697C93.1127 37.327 94.0188 36.6667 94.0188 35.2906V35.2629C94.0188 34.6455 93.8006 34.1162 93.3617 33.6878C92.7918 33.1283 91.8728 32.7981 90.7048 32.7981H86.4871V42.8286H86.4845ZM78.7782 42.3271C76.2522 42.3271 74.4141 40.2933 74.4141 37.8134V37.7857C74.4141 35.3058 76.2239 33.2997 78.7499 33.2997C81.2759 33.2997 83.1139 35.3335 83.1139 37.8134V37.8411C83.1139 40.321 81.3042 42.3271 78.7782 42.3271ZM78.7499 43C81.8432 43 83.902 40.5629 83.902 37.8134V37.7857C83.902 35.0487 81.874 32.6268 78.7782 32.6268C75.6823 32.6268 73.6261 35.0638 73.6261 37.8134V37.8411C73.6261 40.5781 75.654 43 78.7499 43ZM61.4094 42.8286H62.1384V34.1162L66.1816 39.89H66.2406L70.2837 34.1162V42.8286H71.0436V32.7981H70.3274L66.2252 38.7307L62.123 32.7981H61.4068V42.8286H61.4094ZM57.5126 42.8286H58.2724V32.7981H57.5126V42.8286Z" fill="white"/>
</g>
<defs>
<clipPath id="clip0_77_840">
<rect width="282" height="43" fill="white"/>
</clipPath>
</defs>
</svg>
