<svg width="138" height="139" viewBox="0 0 138 139" fill="none" xmlns="http://www.w3.org/2000/svg">
<g clip-path="url(#clip0_11_60)">
<path d="M130.659 16.7081H10.6404V124.065H130.659V16.7081Z" fill="white"/>
<path fill-rule="evenodd" clip-rule="evenodd" d="M16.865 114.898H35.9543V43.7107H101.85V66.1379H70.4665V85.5341H121.257V24.4126H16.865V114.898ZM43.6861 114.898H120.646V95.5998H62.7754V51.4234H43.6861V114.906V114.898ZM3.15303 139H134.847C136.582 139 138 137.578 138 135.838V3.16188C138 1.42162 136.582 0 134.847 0H3.15303C1.41764 0 0 1.42162 0 3.16188V135.838C0 137.578 1.41764 139 3.15303 139Z" fill="#D71016"/>
</g>
<defs>
<clipPath id="clip0_11_60">
<rect width="138" height="139" fill="white"/>
</clipPath>
</defs>
</svg>
