<svg width="14" height="24" viewBox="0 0 14 24" fill="none" xmlns="http://www.w3.org/2000/svg">
<path d="M8.932 4C9.74544 4.00079 10.5253 4.32428 11.1005 4.89947C11.6757 5.47466 11.9992 6.25456 12 7.068C12 7.33322 12.1054 7.58757 12.2929 7.77511C12.4804 7.96264 12.7348 8.068 13 8.068C13.2652 8.068 13.5196 7.96264 13.7071 7.77511C13.8946 7.58757 14 7.33322 14 7.068V7C14 6.981 14 6.964 14 6.945C13.9666 5.62273 13.4181 4.36578 12.4714 3.44205C11.5247 2.51833 10.2547 2.00088 8.932 2H8V1C8 0.734783 7.89464 0.480429 7.70711 0.292892C7.51957 0.105356 7.26522 0 7 0C6.73478 0 6.48043 0.105356 6.29289 0.292892C6.10536 0.480429 6 0.734783 6 1V2H5.068C3.86532 2.00128 2.70229 2.43023 1.78679 3.21018C0.8713 3.99012 0.26301 5.07022 0.0706539 6.25742C-0.121702 7.44462 0.11441 8.66154 0.736792 9.69066C1.35917 10.7198 2.32726 11.494 3.468 11.875L6 12.72V20H5.068C4.25456 19.9992 3.47466 19.6757 2.89947 19.1005C2.32428 18.5253 2.00079 17.7454 2 16.932C2 16.6668 1.89464 16.4124 1.70711 16.2249C1.51957 16.0374 1.26522 15.932 1 15.932C0.734783 15.932 0.480429 16.0374 0.292892 16.2249C0.105356 16.4124 0 16.6668 0 16.932V17C0 17.019 0 17.036 0 17.055C0.0333738 18.3773 0.581862 19.6342 1.52856 20.5579C2.47527 21.4817 3.74531 21.9991 5.068 22H6V23C6 23.2652 6.10536 23.5196 6.29289 23.7071C6.48043 23.8946 6.73478 24 7 24C7.26522 24 7.51957 23.8946 7.70711 23.7071C7.89464 23.5196 8 23.2652 8 23V22H8.932C10.1347 21.9987 11.2977 21.5698 12.2132 20.7898C13.1287 20.0099 13.737 18.9298 13.9293 17.7426C14.1217 16.5554 13.8856 15.3385 13.2632 14.3093C12.6408 13.2802 11.6727 12.506 10.532 12.125L8 11.28V4H8.932ZM6 10.613L4.1 9.979C3.40874 9.74893 2.82191 9.28037 2.44453 8.65718C2.06716 8.034 1.92387 7.29685 2.0403 6.57767C2.15674 5.8585 2.5253 5.20422 3.08003 4.73194C3.63476 4.25966 4.33946 4.00021 5.068 4H6V10.613ZM9.9 14.021C10.5913 14.2511 11.1781 14.7196 11.5555 15.3428C11.9328 15.966 12.0761 16.7031 11.9597 17.4223C11.8433 18.1415 11.4747 18.7958 10.92 19.2681C10.3652 19.7403 9.66054 19.9998 8.932 20H8V13.387L9.9 14.021Z" fill="#D71016"/>
</svg>
