<svg width="24" height="24" viewBox="0 0 24 24" fill="none" xmlns="http://www.w3.org/2000/svg">
<path d="M23.2909 19.8735L4.12651 0.709128C3.43242 0.0150422 2.3983 -0.189983 1.49218 0.185063C0.585072 0.560109 0 1.43622 0 2.41834V24H21.5817C22.5628 24 23.4389 23.4139 23.8149 22.5078C24.191 21.6017 23.985 20.5676 23.2909 19.8735ZM21.9667 21.7427C21.9267 21.8387 21.8237 21.9998 21.5817 21.9998H2.00025V2.41834C2.00025 2.17631 2.16127 2.0723 2.25728 2.03229C2.35329 1.99529 2.54031 1.95128 2.71233 2.1233L5.90373 5.3147L4.0325 7.18593L5.44667 8.6001L7.3179 6.72887L8.73208 8.14305L6.85985 10.0143L6.91185 10.0663L8.32603 11.4805L10.1973 9.60823L11.6114 11.0224L9.7402 12.8936L11.1544 14.3078L13.0256 12.4366L14.4398 13.8507L12.5675 15.722L13.9817 17.1362L15.854 15.2649L17.2681 16.6791L15.3969 18.5513L16.8111 19.9655L18.6823 18.0933L21.8737 21.2847C22.0447 21.4567 22.0037 21.6427 21.9637 21.7397L21.9667 21.7427ZM6.00074 12.5846L11.4154 17.9993H6.00074V12.5846Z" fill="black"/>
</svg>
